<?xml version="1.0" encoding="UTF-8"?>
<svg version="1.1" viewBox="0 0 410 140" xmlns="http://www.w3.org/2000/svg"><path d="m278.5 9.257e-4c-1.785 0.01204-3.572 0.1407-4.856 0.3815-6.878 1.289-13.51 6.989-14.53 14.29-0.2394 2.543-0.1224 4.752 0.4348 7.035 0.5213 2.135 1.315 4.298 2.67 6.029 3.186 4.068 6.86 6.795 12.25 9.492 3.889 1.944 6.08 3.276 7.054 4.285 1.363 1.412 2.726 3.226 1.955 6.106-0.8022 2.366-3.603 3.886-7.165 3.89-3.624 4e-3 -7.923-1.827-12.5-4.627-1.3-0.7947-1.724-0.981-1.854-0.8183l-5.234 11.67c0.2141 0.2929 3.779 2.183 6.424 3.406 4.072 1.883 7.206 2.795 10.98 3.19 5.762 0.6044 11.51-0.2577 15.25-2.289 5.148-2.791 8.598-7.786 9.361-13.56 0.3034-2.295-0.0422-6.359-0.7412-8.731-1.769-6.002-5.772-9.738-14.87-13.87-4.786-2.175-8.001-3.702-8.962-5.335-0.6359-1.08-1.102-2.285-0.6187-4.09 0.2467-0.9615 1.408-2.295 2.407-2.765 2.934-1.382 5.382-0.888 7.79-0.257 1.49 0.3906 4.466 1.779 6.208 2.896 0.8078 0.5176 1.569 0.9996 1.69 1.071l5.382-11.57c0.0334-0.3059-3.697-2.311-6.193-3.329-2.477-1.01-4.976-1.737-7.505-2.182-1.271-0.2236-3.052-0.3283-4.837-0.3163zm-202 1.285c-6.086 0-7.753 0.04807-7.738 0.2194 0.01042 0.1201 0.04332 14.07 0.07115 31.01l0.04942 30.79h15.48l-0.06918-30.44c-0.03775-16.74-0.06186-30.7-0.05336-31.01l0.01582-0.5673zm99.17 0c-13.3 0-16.76 0.04625-16.75 0.2194 0.0104 0.1201 0.0394 14.07 0.0672 31.01l0.0533 30.79h34.09l0.0316-0.5673c0.0172-0.3123 0.0264-3.123 0.0218-6.246-5e-3 -3.123 3e-3 -5.934 0.0178-6.246l0.0257-0.5673h-18.78l0.0316-0.4803c0.0174-0.2642 0.0177-2.623 0-5.242l-0.0336-4.76h17.42l-0.0139-6.683c-8e-3 -3.675-0.0238-6.741-0.0356-6.813-0.0119-0.07205-3.938-0.1324-8.723-0.1324h-8.701l0.0316-0.4803c0.0172-0.2642 0.0175-2.662 2e-3 -5.329l-0.0276-4.847h17.97l0.0336-0.3933c0.0182-0.2162 0.0182-3.066 2e-3 -6.333-0.0164-3.267-0.0129-6.158 6e-3 -6.422l0.0336-0.4803zm-78.39 0.00405-2e-3 1.769-0.04151 29.24-0.04349 31.01 11.84-2e-3c2.777-3.64e-4 5.465-0.01956 7.568-0.04942 2.104-0.02985 3.411-0.04211 4.169-0.1245 5.743-0.625 10.4-2.213 14.62-5.034 6.519-4.363 11.51-11.77 13.04-19.4 1.191-5.908 0.7056-12.22-1.384-17.64-3.618-9.374-11.16-16.05-20.94-18.56-2.139-0.5489-3.562-0.8714-5.799-1.028-2.237-0.1564-5.275-0.1675-10.99-0.17zm-84.02 0.02965-2e-3 1.743-0.04151 29.24-0.04349 30.98h15.16v-21.38l5.928 8.841 8.399 12.53 18.68 0.012-2.506-3.331-2e-3 -2e-3c-2.396-3.19-6.864-9.178-10.73-14.37-1.934-2.598-3.719-5-5.019-6.754-0.2918-0.3937-0.4547-0.6136-0.6938-0.9369 1.821-0.6023 3.706-1.438 5.169-2.479 4.61-3.279 7.088-9.284 6.847-15.8-0.2307-6.233-3.035-11.67-7.823-14.83-2.345-1.551-5.383-2.584-8.918-3.145-1.765-0.2799-3.335-0.316-12.39-0.3163zm192.1 0-2e-3 1.743-0.0415 29.24-0.0435 30.98h15.16v-21.38l5.928 8.841 8.399 12.53 18.68 0.012-2.506-3.331-2e-3 -2e-3c-2.396-3.19-6.864-9.178-10.73-14.37-1.934-2.598-3.719-5-5.019-6.754-0.2918-0.3937-0.4547-0.6136-0.6938-0.9369 1.821-0.6023 3.706-1.438 5.169-2.479 4.61-3.279 7.088-9.284 6.847-15.8-0.2306-6.233-3.035-11.67-7.823-14.83-2.345-1.551-5.383-2.584-8.918-3.145-1.765-0.2799-3.335-0.316-12.39-0.3163zm-177 12.28h0.4724c5.072 3e-3 7.423 0.7081 9.167 2.301 1.354 1.236 1.913 2.577 1.913 5.086 0 3.993-1.719 6.228-5.453 7.167-0.3935 0.09897-1.606 0.31-2.382 0.3973-0.7248 0.08157-2.373 0.1655-3.418 0.166h-0.3004v-7.558zm192.1 0h0.4724c5.072 3e-3 7.423 0.7081 9.167 2.301 1.354 1.236 1.913 2.577 1.913 5.086 0 3.993-1.719 6.228-5.453 7.167-0.3935 0.09897-1.606 0.31-2.382 0.3973-0.7248 0.08157-2.373 0.1655-3.418 0.166h-0.3004v-7.558zm-108 1.188 1.674 0.04544c6.037 0.1682 9.415 1.025 12.14 2.84 6.257 4.163 9.06 12.85 6.483 20.56-2.14 6.4-6.185 9.889-12.94 11.13-0.7492 0.1381-2.543 0.2711-5.183 0.3261l-2.178 0.04546v-17.48zm235.5 60.9 0.0158 0.05336c-3.384 0.05839-6.766 0.6115-10.04 1.753-11 3.832-19.01 13.18-21.21 24.71-0.5911 3.106-0.6298 8.483-0.0672 11.55 0.865 4.719 2.653 8.934 5.479 12.94 1.406 1.995 3.854 4.969 6.784 6.837 5.058 3.225 9.259 5.552 17.79 6.341 5.788 0.5357 12.13-0.761 16.8-2.676l1.362-0.5574 0.1996-16.57-3.273 1.654c-2.9 1.468-5.629 2.551-8.369 3.111-2.457 0.502-4.924 0.5939-7.626 0.1562-5.628-0.9864-10.77-5.364-12.58-10.68-0.69-2.022-0.8642-3.245-0.8736-6.197v-6e-3c1.7e-4 -2.899 0.0729-3.503 0.7274-5.764 1.499-5.177 5.447-9.171 10.17-10.93 2.557-0.9538 5.654-1.023 8.673-0.6463 3.345 0.4176 6.674 1.564 9.642 3.277l3.335 1.925v-16.52l-3.344-1.548v0.06522c-4.199-1.778-8.507-2.24-12.65-2.271-0.0137-1.01e-4 -0.1019-0.01926-0.2589-0.01977h-2e-3zm-325.3 1.136-2.281 6.333c-1.255 3.483-6.332 17.44-11.28 31.01l-8.999 24.68 17.16-0.0889 1.846-5.592 1.848-5.59 21.29-0.083 2.068 5.675 2.068 5.677h16.22l-0.2214-0.5673c-0.1217-0.3123-5.044-13.93-10.94-30.27-5.892-16.34-10.84-30.04-10.99-30.44l-0.2747-0.7412h-8.756zm53.99 0c-6.068 0-7.73 0.04605-7.715 0.2174 0.01042 0.1201 0.04135 14.07 0.06918 31.01l0.05139 30.79h17.49c16.54-1e-5 17.49-0.0172 17.46-0.3064-0.0175-0.1682-0.0216-3.234-0.0101-6.813l0.0218-6.507h-19.55l0.02372-0.5692c0.02368-0.5746-0.07547-47.51-0.1008-47.71-0.0071-0.06143-3.495-0.1107-7.748-0.1107zm43.31 0c-6.068 0-7.728 0.04605-7.713 0.2174 0.0104 0.1201 0.0394 14.07 0.0672 31.01l0.0514 30.79h17.49c16.54-1e-5 17.49-0.0172 17.46-0.3064-0.0174-0.1682-0.0216-3.234-0.0101-6.813l0.0218-6.507h-19.55l0.0237-0.5692c0.0237-0.5746-0.0754-47.51-0.1008-47.71-7e-3 -0.06143-3.495-0.1107-7.748-0.1107zm43.33 0c-6.086 0-7.751 0.04605-7.736 0.2174 0.0104 0.1201 0.0414 14.07 0.0692 31.01l0.0494 30.79h7.74l7.74-2e-3 -0.0692-30.44c-0.0378-16.74-0.0618-30.7-0.0533-31.01l0.0158-0.5673zm37.76 0-2.281 6.333c-1.255 3.483-6.332 17.44-11.28 31.01l-8.999 24.68 17.16-0.0889 1.848-5.592 1.848-5.59 21.29-0.083 2.066 5.675 2.07 5.677h16.22l-0.2214-0.5673c-0.1219-0.3123-5.044-13.93-10.94-30.27-5.892-16.34-10.84-30.04-10.99-30.44l-0.2747-0.7412h-8.756zm98.84 0c-4.253 0-7.73 0.02488-7.726 0.05535 4e-3 0.03046 0.0237 7.361 0.0415 16.29 0.0348 17.51 0.0545 18.88 0.3756 22.92l0.2115 2.668-1.314-2.058c-0.724-1.132-2.344-3.669-3.599-5.639s-7.128-10.48-13.05-18.9l-10.77-15.32-8.379-0.0079c-6.589-0.0061-8.376 0.03785-8.361 0.2095 0.0104 0.1201 0.0433 14.07 0.0711 31.01l0.0494 30.79h15.48l-0.0533-15.59c-0.0637-17.61-0.086-18.32-0.7313-23.62-0.2717-2.229-0.3967-3.765-0.2965-3.669 0.0947 0.09128 0.6926 1.108 1.328 2.261 1.937 3.514 5.512 9.273 7.661 12.35 1.12 1.601 6.062 8.617 10.98 15.59l8.948 12.67 8.499-0.0376 8.497-0.0356-0.0494-30.75c-0.0272-16.91-0.0556-30.85-0.0653-30.97-0.0134-0.1716-1.675-0.2174-7.752-0.2174zm90.69 0c-13.3 0-16.77 0.04422-16.75 0.2174 0.0104 0.1201 0.0414 14.07 0.0692 31.01l0.0494 30.79h34.09l0.0316-0.5673c0.0172-0.3123 0.0283-3.123 0.0237-6.246-5e-3 -3.123 1e-3 -5.934 0.0158-6.246l0.0257-0.5673h-18.77l0.0297-0.4823c0.0174-0.2642 0.0176-2.621 0-5.24l-0.0316-4.762h17.41l-0.0139-6.683c-8e-3 -3.675-0.0257-6.741-0.0375-6.813-0.0119-0.0721-3.936-0.1304-8.721-0.1304h-8.701l0.0336-0.4803c0.0172-0.2642 0.0175-2.662 2e-3 -5.329l-0.0297-4.849h17.97l0.0336-0.3933c0.0182-0.2162 0.0221-3.066 6e-3 -6.333-0.0164-3.267-0.0157-6.156 4e-3 -6.42l0.0356-0.4803zm-359.4 18.14 0.8302 2.856c0.4564 1.571 1.871 5.961 3.145 9.756 1.274 3.796 2.335 7.039 2.356 7.207 0.03594 0.2856-0.3695 0.3064-6.165 0.3064-4.897 0-6.194-0.0471-6.145-0.2194 0.03429-0.1201 0.9737-3.009 2.085-6.42 1.979-6.074 2.951-9.368 3.58-12.11zm178.4 0 0.8302 2.856c0.4564 1.571 1.873 5.961 3.147 9.756 1.274 3.796 2.333 7.039 2.354 7.207 0.0359 0.2856-0.3715 0.3064-6.167 0.3064-4.897 0-6.192-0.0471-6.143-0.2194 0.0343-0.1201 0.9717-3.009 2.083-6.42 1.979-6.074 2.955-9.368 3.584-12.11z" fill="#1f1f1f"/></svg>
