<?xml version="1.0" encoding="UTF-8"?>
<svg version="1.1" viewBox="0 0 512 512" xmlns="http://www.w3.org/2000/svg"><path d="m249.5 0.001953c-8.124 0.02859-16.27 0.4798-24.42 1.377-105.1 5.452-205.8 108.7-217.9 191.8-28.43 118.8 29.17 261.1 150.2 301.1 82.29 26.76 149.8 20.97 203-2.287l-0.00196-0.02149c-3.959-43.99-7.204-106-11.77-192.5-5.984-110.1-7.032-150.1-12.06-232.3-36.32 121-84.75 267.9-127.9 268.5-38.8 0.5894-59.35-94.51-63.68-130.7-6.956 25.38-41.08 161.3-70.32 151.5-18.11-6.055 35.56-189 69.81-189.4 34.25-0.4605 42.65 89.58 63.68 130.7 26.8-76.63 67.2-207.8 102.5-290.1l0.01172-0.03711c-19.91-5.075-40.42-7.768-61.1-7.695zm151.8 50.19 0.01172 0.09961c5.476 53.77 10.74 130.8 18.2 240.8 3.305 65.73 5.767 117 6.977 157.5 57.91-53.24 85.72-128.4 84.87-178.5 6.815-88.45-40.27-170-110.1-219.9z" fill="#1f1f1f"/></svg>
