<?xml version="1.0" encoding="UTF-8"?>
<svg version="1.1" viewBox="0 0 512 512" xmlns="http://www.w3.org/2000/svg" xmlns:xlink="http://www.w3.org/1999/xlink"><defs><linearGradient id="a" x1="4.4e-6" x2="512" y1="350.5" y2="-161.5" gradientTransform="translate(-4.4e-6 161.5)" gradientUnits="userSpaceOnUse"><stop stop-color="#e3008c" offset="0"/><stop stop-color="#e74856" offset="1"/></linearGradient></defs><path d="m511.3 270.1c11.77-152.8-137.3-285.1-286.3-268.7-105.1 5.452-205.8 108.7-217.9 191.8-28.43 118.8 29.17 261.1 150.2 301.1 241.6 78.57 355.7-123.5 354-224.2z" fill="url(#a)"/><path d="m310.6 7.735c-35.32 82.31-75.72 213.5-102.5 290.1-21.03-41.13-29.43-131.2-63.68-130.7-34.25 0.4605-87.92 183.4-69.81 189.4 29.24 9.779 63.36-126.1 70.32-151.5 4.334 36.2 24.88 131.3 63.68 130.7 43.19-0.5808 91.62-147.5 127.9-268.5 5.025 82.18 6.072 122.2 12.06 232.3 4.564 86.51 7.809 148.5 11.77 192.5 25.27-11.06 47.31-26.05 66.16-43.38-1.209-40.5-3.671-91.8-6.976-157.5-7.455-109.9-12.72-187-18.2-240.8-27.39-19.57-58.24-34.27-90.74-42.55z" fill="#fff"/></svg>
